<?xml version="1.0" encoding="iso-8859-1"?>
<!-- Generator: Adobe Illustrator 19.0.0, SVG Export Plug-In . SVG Version: 6.00 Build 0)  -->
<svg version="1.1" id="Layer_1" xmlns="http://www.w3.org/2000/svg" xmlns:xlink="http://www.w3.org/1999/xlink" x="0px" y="0px"
	 viewBox="0 0 512 512" style="enable-background:new 0 0 512 512;" xml:space="preserve">
<rect x="238.915" y="169.728" style="fill:#DBE77F;" width="33.007" height="326.845"/>
<rect x="255.421" y="169.728" style="fill:#CED977;" width="16.504" height="326.845"/>
<path style="fill:#DBE77F;" d="M271.923,426.942h-33.007c0-59.745-39.612-132.226-73.532-176.14l26.122-20.177
	C230.382,280.954,271.923,358.958,271.923,426.942z"/>
<path style="fill:#CED977;" d="M271.923,426.942h-16.504c0-26.677,0.014-56.114,0.014-82.383
	c15.673-42.558,40.278-83.355,63.899-113.936l26.122,20.177C311.535,294.716,271.923,367.197,271.923,426.942z"/>
<path style="fill:#F6C958;" d="M191.056,139.806c-8.333-8.333-20.036-11.243-30.723-8.731c-5.782-9.331-16.109-15.549-27.894-15.549
	c-11.784,0-22.112,6.219-27.893,15.549c-10.687-2.512-22.39,0.397-30.723,8.731c-8.333,8.333-11.243,20.036-8.731,30.724
	c-9.331,5.781-15.549,16.109-15.549,27.893s6.219,22.112,15.549,27.894c-2.512,10.687,0.397,22.39,8.731,30.723
	c8.333,8.333,20.036,11.243,30.723,8.731c5.782,9.331,16.109,15.549,27.894,15.549c9.056,0,17.256-3.671,23.19-9.606
	c1.788-1.788,3.365-3.783,4.704-5.944c10.687,2.511,22.39-0.397,30.723-8.731c8.333-8.333,11.243-20.036,8.731-30.723
	c2.16-1.339,4.156-2.916,5.944-4.704c5.934-5.934,9.606-14.135,9.606-23.19c0-11.784-6.219-22.112-15.549-27.894
	C202.299,159.842,199.39,148.141,191.056,139.806z"/>
<path style="fill:#E5BC53;" d="M191.056,139.806c-8.333-8.333-20.036-11.243-30.723-8.731c-5.782-9.331-16.109-15.549-27.894-15.549
	c-11.784,0-22.112,6.219-27.893,15.549c-10.687-2.512-22.39,0.397-30.723,8.731c16.577,16.577,103.476,103.476,117.235,117.235
	c8.333-8.333,11.243-20.036,8.731-30.723c2.16-1.339,4.156-2.916,5.944-4.704c5.934-5.934,9.606-14.135,9.606-23.19
	c0-11.784-6.219-22.112-15.549-27.894C202.299,159.842,199.39,148.141,191.056,139.806z"/>
<circle style="fill:#EE964B;" cx="132.441" cy="198.422" r="22.768"/>
<path style="fill:#DF8D46;" d="M116.34,182.324c8.891-8.891,23.307-8.891,32.198,0c8.891,8.891,8.891,23.307,0,32.198
	C135.791,201.775,124.963,190.947,116.34,182.324z"/>
<path style="fill:#FC9FD8;" d="M438.177,257.04c8.333-8.333,11.243-20.036,8.731-30.723c9.331-5.782,15.549-16.109,15.549-27.894
	c0-11.784-6.219-22.112-15.549-27.893c2.512-10.687-0.397-22.39-8.731-30.723s-20.036-11.243-30.724-8.731
	c-5.781-9.331-16.109-15.549-27.893-15.549c-11.784,0-22.112,6.219-27.894,15.549c-10.687-2.512-22.39,0.397-30.723,8.731
	c-8.333,8.333-11.243,20.036-8.731,30.723c-9.331,5.782-15.549,16.109-15.549,27.894c0,9.056,3.671,17.256,9.606,23.19
	c1.788,1.788,3.783,3.365,5.944,4.704c-2.511,10.687,0.397,22.39,8.731,30.723c8.333,8.333,20.036,11.243,30.723,8.731
	c1.339,2.16,2.916,4.156,4.704,5.944c5.934,5.934,14.135,9.606,23.19,9.606c11.784,0,22.112-6.219,27.894-15.549
	C418.142,268.282,429.844,265.374,438.177,257.04z"/>
<path style="fill:#EC96CB;" d="M438.177,257.04c8.333-8.333,11.243-20.036,8.731-30.723c9.331-5.782,15.549-16.109,15.549-27.894
	c0-11.784-6.219-22.112-15.549-27.893c2.512-10.687-0.397-22.39-8.731-30.723c-16.577,16.577-103.476,103.476-117.235,117.235
	c8.333,8.333,20.036,11.243,30.723,8.731c1.339,2.16,2.916,4.156,4.704,5.944c5.934,5.934,14.135,9.606,23.19,9.606
	c11.784,0,22.112-6.219,27.894-15.549C418.142,268.282,429.844,265.374,438.177,257.04z"/>
<circle style="fill:#D4498D;" cx="379.559" cy="198.422" r="22.768"/>
<path style="fill:#C84788;" d="M395.66,182.324c8.891,8.891,8.891,23.307,0,32.198c-8.891,8.891-23.307,8.891-32.198,0
	C376.209,201.775,387.038,190.947,395.66,182.324z"/>
<path style="fill:#D02D7F;" d="M354.442,99.022c0-14.078-7.427-26.419-18.577-33.326c2.997-12.765-0.473-26.741-10.427-36.695
	c-9.954-9.953-23.928-13.424-36.694-10.426C281.839,7.427,269.498,0,255.42,0s-26.419,7.427-33.326,18.577
	c-12.764-2.999-26.74,0.473-36.694,10.426c-9.953,9.954-13.424,23.929-10.426,36.695c-11.149,6.905-18.577,19.247-18.577,33.326
	s7.427,26.419,18.577,33.326c-2.997,12.765,0.473,26.741,10.426,36.695c7.65,7.649,17.675,11.474,27.7,11.474
	c3.02,0,6.038-0.354,8.992-1.047c6.906,11.148,19.248,18.577,33.326,18.577s26.419-7.427,33.325-18.577
	c2.955,0.693,5.974,1.047,8.993,1.047c10.024,0,20.053-3.826,27.7-11.474c9.954-9.954,13.424-23.929,10.427-36.695
	C347.015,125.442,354.442,113.101,354.442,99.022z"/>
<path style="fill:#C42C78;" d="M354.442,99.022c0-14.078-7.427-26.419-18.577-33.326c2.997-12.765-0.473-26.741-10.427-36.695
	c-9.954-9.953-23.928-13.424-36.694-10.426C281.839,7.427,269.498,0,255.42,0c0,13.883,0,180.323,0,198.045
	c14.078,0,26.419-7.427,33.325-18.577c2.955,0.693,5.974,1.047,8.993,1.047c10.024,0,20.053-3.826,27.7-11.474
	c9.954-9.954,13.424-23.929,10.427-36.695C347.015,125.442,354.442,113.101,354.442,99.022z"/>
<circle style="fill:#E759A0;" cx="255.421" cy="99.027" r="27.197"/>
<path style="fill:#D85397;" d="M255.42,71.826c15.021,0,27.197,12.177,27.197,27.197s-12.177,27.197-27.197,27.197
	C255.42,110.509,255.42,88.174,255.42,71.826z"/>
<polygon style="fill:#B82971;" points="256.483,399.713 204.123,512 189.959,485.4 160.479,491.648 204.712,396.789 "/>
<polygon style="fill:#A82667;" points="254.356,399.713 306.717,512 320.88,485.4 350.362,491.648 306.128,396.789 "/>
<path style="fill:#D02D7F;" d="M235.459,401.993c0,0-57.323,1.707-87.712-3.994c-27.746-5.205-18.807-40.066-9.458-73.215
	c6.214-22.033,21.767-21.181,29.941-18.078c20.402,7.746,53.067,42.409,67.229,55.678V401.993z"/>
<g>
	<path style="fill:#C42C78;" d="M235.077,362.026c-14.358-13.521-46.625-47.642-66.848-55.319
		c-8.174-3.103-23.727-3.955-29.941,18.078C138.288,343.345,199.319,358.038,235.077,362.026z"/>
	<path style="fill:#C42C78;" d="M275.381,401.993c0,0,57.323,1.707,87.712-3.994c27.746-5.205,18.807-40.066,9.458-73.215
		c-6.214-22.033-21.767-21.181-29.941-18.078c-20.402,7.746-53.067,42.409-67.229,55.678V401.993z"/>
</g>
<path style="fill:#B82971;" d="M275.762,362.026c14.358-13.521,46.625-47.642,66.848-55.319c8.174-3.103,23.727-3.955,29.941,18.078
	C372.552,343.345,311.521,358.038,275.762,362.026z"/>
<path style="fill:#C42C78;" d="M269.339,357.553H241.5c-5.831,0-10.558,4.727-10.558,10.558v27.838
	c0,5.831,4.727,10.558,10.558,10.558h27.838c5.831,0,10.558-4.727,10.558-10.558v-27.838
	C279.898,362.281,275.171,357.553,269.339,357.553z"/>
<path style="fill:#B82971;" d="M273.82,357.553h-18.4c0,3.187,0,41.174,0,48.956h18.4c3.357,0,6.078-2.721,6.078-6.078v-36.798
	C279.898,360.275,277.177,357.553,273.82,357.553z"/>
<g>
</g>
<g>
</g>
<g>
</g>
<g>
</g>
<g>
</g>
<g>
</g>
<g>
</g>
<g>
</g>
<g>
</g>
<g>
</g>
<g>
</g>
<g>
</g>
<g>
</g>
<g>
</g>
<g>
</g>
</svg>
