<?xml version="1.0" encoding="iso-8859-1"?>
<!-- Generator: Adobe Illustrator 16.0.0, SVG Export Plug-In . SVG Version: 6.00 Build 0)  -->
<!DOCTYPE svg PUBLIC "-//W3C//DTD SVG 1.1//EN" "http://www.w3.org/Graphics/SVG/1.1/DTD/svg11.dtd">
<svg version="1.1" id="Capa_1" xmlns="http://www.w3.org/2000/svg" xmlns:xlink="http://www.w3.org/1999/xlink" x="0px" y="0px"
	 viewBox="0 0 58.529 58.529" style="enable-background:new 0 0 58.529 58.529;"
	 xml:space="preserve">
<g>
	<path d="M16.906,42.546h24.777c1.243,0,2.252,1.557,2.252,3.478s-1.009,3.479-2.252,3.479H16.906c-1.244,0-2.253-1.558-2.253-3.479
		S15.662,42.546,16.906,42.546z M0.952,14.308c-1.212-1.134-1.274-3.035-0.142-4.247C1.942,8.848,3.828,8.77,5.057,9.917
		c3.251,3.052,6.589,0.241,6.959-0.089c1.105-0.99,2.741-1.011,3.867-0.119c0.133,0.105,0.259,0.224,0.376,0.354
		c1.106,1.236,1.001,3.136-0.235,4.244C13.36,16.691,6.816,19.791,0.952,14.308z M42.457,14.272
		c-1.212-1.134-1.274-3.035-0.143-4.247c1.132-1.213,3.019-1.291,4.247-0.143c3.251,3.052,6.589,0.241,6.959-0.089
		c1.105-0.99,2.741-1.011,3.867-0.119c0.133,0.105,0.259,0.224,0.376,0.354c1.106,1.236,1.001,3.136-0.235,4.244
		C54.864,16.656,48.32,19.755,42.457,14.272z"/>
</g>
<g>
</g>
<g>
</g>
<g>
</g>
<g>
</g>
<g>
</g>
<g>
</g>
<g>
</g>
<g>
</g>
<g>
</g>
<g>
</g>
<g>
</g>
<g>
</g>
<g>
</g>
<g>
</g>
<g>
</g>
</svg>
