<?xml version="1.0" encoding="iso-8859-1"?>
<!-- Generator: Adobe Illustrator 16.0.0, SVG Export Plug-In . SVG Version: 6.00 Build 0)  -->
<!DOCTYPE svg PUBLIC "-//W3C//DTD SVG 1.1//EN" "http://www.w3.org/Graphics/SVG/1.1/DTD/svg11.dtd">
<svg version="1.1" id="Capa_1" xmlns="http://www.w3.org/2000/svg" xmlns:xlink="http://www.w3.org/1999/xlink" x="0px" y="0px"
	 viewBox="0 0 51.132 51.132" style="enable-background:new 0 0 51.132 51.132;"
	 xml:space="preserve">
<g>
	<path d="M48.176,43.944c0,1.921-1.559,3.478-3.479,3.478H6.439c-1.921,0-3.479-1.557-3.479-3.478s1.558-3.479,3.479-3.479h38.258
		C46.617,40.465,48.176,42.023,48.176,43.944z M50.21,4.632c1.229,1.229,1.229,3.222-0.001,4.451l-9.455,9.456
		c-1.229,1.229-3.223,1.229-4.451,0s-1.229-3.222,0-4.451l9.456-9.455C46.988,3.403,48.98,3.403,50.21,4.632z M50.415,20.913
		c0,2.254-1.827,4.081-4.079,4.081s-4.079-1.827-4.079-4.081c0-2.252,1.827-4.08,4.079-4.08
		C48.587,16.833,50.415,18.66,50.415,20.913z M0.922,9.083c-1.229-1.229-1.229-3.222-0.001-4.451c1.229-1.229,3.222-1.229,4.451,0
		l9.456,9.455c1.229,1.229,1.229,3.222,0,4.451c-1.229,1.229-3.223,1.229-4.451,0L0.922,9.083z M4.795,24.994
		c-2.251,0-4.079-1.827-4.079-4.081c0-2.252,1.827-4.08,4.079-4.08s4.079,1.827,4.079,4.08C8.874,23.167,7.047,24.994,4.795,24.994z
		"/>
</g>
<g>
</g>
<g>
</g>
<g>
</g>
<g>
</g>
<g>
</g>
<g>
</g>
<g>
</g>
<g>
</g>
<g>
</g>
<g>
</g>
<g>
</g>
<g>
</g>
<g>
</g>
<g>
</g>
<g>
</g>
</svg>
