<?xml version="1.0" encoding="iso-8859-1"?>
<!-- Generator: Adobe Illustrator 16.0.0, SVG Export Plug-In . SVG Version: 6.00 Build 0)  -->
<!DOCTYPE svg PUBLIC "-//W3C//DTD SVG 1.1//EN" "http://www.w3.org/Graphics/SVG/1.1/DTD/svg11.dtd">
<svg version="1.1" id="Capa_1" xmlns="http://www.w3.org/2000/svg" xmlns:xlink="http://www.w3.org/1999/xlink" x="0px" y="0px"
	 viewBox="0 0 60.456 60.456" style="enable-background:new 0 0 60.456 60.456;"
	 xml:space="preserve">
<g>
	<path d="M18.896,59.07c3.139,0.939,6.307,1.386,9.426,1.386c14.19,0,27.332-9.25,31.604-23.523l-26.922,1.051L18.896,59.07z
		 M29.592,56.411c-0.422,0.02-0.844,0.045-1.27,0.045c-0.926,0-1.852-0.045-2.773-0.136l4.043-6.045V56.411z M50.257,41.312
		l3.603-0.141c-1.011,1.867-2.228,3.598-3.603,5.182V41.312z M41.425,41.656l5.832-0.227v7.912
		c-1.779,1.537-3.733,2.867-5.832,3.938V41.656z M38.425,41.773v12.824c-1.873,0.705-3.826,1.223-5.834,1.527V45.792l2.604-3.892
		L38.425,41.773z M36.832,14.829c-1.229-1.229-1.229-3.221,0-4.451l9.457-9.455c1.229-1.229,3.221-1.229,4.451,0
		c1.229,1.229,1.229,3.223-0.002,4.451l-9.455,9.455C40.054,16.057,38.06,16.057,36.832,14.829z M50.944,17.204
		c0,2.254-1.826,4.08-4.078,4.08s-4.078-1.826-4.078-4.08c0-2.252,1.826-4.08,4.078-4.08S50.944,14.952,50.944,17.204z
		 M15.358,10.376c1.229,1.23,1.229,3.223,0,4.451s-3.223,1.229-4.451,0L1.452,5.373c-1.229-1.229-1.229-3.223,0-4.451
		s3.221-1.229,4.451,0L15.358,10.376z M9.405,17.204c0,2.254-1.828,4.08-4.08,4.08s-4.078-1.826-4.078-4.08
		c0-2.252,1.826-4.08,4.078-4.08S9.405,14.952,9.405,17.204z"/>
</g>
<g>
</g>
<g>
</g>
<g>
</g>
<g>
</g>
<g>
</g>
<g>
</g>
<g>
</g>
<g>
</g>
<g>
</g>
<g>
</g>
<g>
</g>
<g>
</g>
<g>
</g>
<g>
</g>
<g>
</g>
</svg>
