<?xml version="1.0" encoding="iso-8859-1"?>
<!-- Generator: Adobe Illustrator 16.0.0, SVG Export Plug-In . SVG Version: 6.00 Build 0)  -->
<!DOCTYPE svg PUBLIC "-//W3C//DTD SVG 1.1//EN" "http://www.w3.org/Graphics/SVG/1.1/DTD/svg11.dtd">
<svg version="1.1" id="Capa_1" xmlns="http://www.w3.org/2000/svg" xmlns:xlink="http://www.w3.org/1999/xlink" x="0px" y="0px"
	 viewBox="0 0 55.048 55.048" style="enable-background:new 0 0 55.048 55.048;"
	 xml:space="preserve">
<g>
	<path d="M3.147,14.327h13.372c1.738,0,3.147-1.409,3.147-3.147c0-1.738-1.409-3.147-3.147-3.147H3.147C1.409,8.033,0,9.441,0,11.18
		C0,12.917,1.409,14.327,3.147,14.327z"/>
	<path d="M38.529,14.328H51.9c1.738,0,3.147-1.409,3.147-3.147S53.639,8.034,51.9,8.034H38.529c-1.737,0-3.147,1.409-3.147,3.147
		S36.792,14.328,38.529,14.328z"/>
	<path d="M4.919,43.538c0,1.921,1.558,3.478,3.479,3.478h38.258c1.922,0,3.479-1.557,3.479-3.478s-1.558-3.478-3.479-3.478H8.397
		C6.476,40.06,4.919,41.617,4.919,43.538z"/>
</g>
<g>
</g>
<g>
</g>
<g>
</g>
<g>
</g>
<g>
</g>
<g>
</g>
<g>
</g>
<g>
</g>
<g>
</g>
<g>
</g>
<g>
</g>
<g>
</g>
<g>
</g>
<g>
</g>
<g>
</g>
</svg>
