<?xml version="1.0" encoding="iso-8859-1"?>
<!-- Generator: Adobe Illustrator 16.0.0, SVG Export Plug-In . SVG Version: 6.00 Build 0)  -->
<!DOCTYPE svg PUBLIC "-//W3C//DTD SVG 1.1//EN" "http://www.w3.org/Graphics/SVG/1.1/DTD/svg11.dtd">
<svg version="1.1" id="Capa_1" xmlns="http://www.w3.org/2000/svg" xmlns:xlink="http://www.w3.org/1999/xlink" x="0px" y="0px"
	 viewBox="0 0 51.505 51.505" style="enable-background:new 0 0 51.505 51.505;"
	 xml:space="preserve">
<g>
	<path d="M51.27,31.222c0.265,0.403,0.31,0.914,0.117,1.355c-4.284,9.904-14.317,16.304-25.562,16.304
		c-11.486,0-21.58-6.431-25.714-16.382c-0.185-0.443-0.135-0.947,0.131-1.348c0.267-0.397,0.714-0.637,1.192-0.637
		c0,0,0.001,0,0.002,0l48.638,0.06C50.556,30.574,51.004,30.817,51.27,31.222z M6.683,12.468c-0.744-1.023-1.189-2.279-1.189-3.643
		c0-3.424,2.777-6.201,6.2-6.201c3.424,0,6.2,2.777,6.2,6.201c0,1.315-0.412,2.533-1.11,3.537c-1.127-1.549-2.949-2.561-5.011-2.561
		C9.664,9.802,7.802,10.859,6.683,12.468z M34.8,12.468c-0.743-1.023-1.188-2.279-1.188-3.643c0-3.424,2.777-6.201,6.2-6.201
		c3.424,0,6.199,2.777,6.199,6.201c0,1.315-0.411,2.533-1.109,3.537c-1.127-1.549-2.949-2.561-5.011-2.561
		C37.781,9.802,35.92,10.859,34.8,12.468z"/>
</g>
<g>
</g>
<g>
</g>
<g>
</g>
<g>
</g>
<g>
</g>
<g>
</g>
<g>
</g>
<g>
</g>
<g>
</g>
<g>
</g>
<g>
</g>
<g>
</g>
<g>
</g>
<g>
</g>
<g>
</g>
</svg>
