<?xml version="1.0" encoding="iso-8859-1"?>
<!-- Generator: Adobe Illustrator 19.0.0, SVG Export Plug-In . SVG Version: 6.00 Build 0)  -->
<svg version="1.1" id="Layer_1" xmlns="http://www.w3.org/2000/svg" xmlns:xlink="http://www.w3.org/1999/xlink" x="0px" y="0px"
	 viewBox="0 0 366.636 366.636" style="enable-background:new 0 0 366.636 366.636;" xml:space="preserve">
<g id="XMLID_934_">
	<path id="XMLID_940_" style="fill:#5FD2DB;" d="M183.318,21.464L213.95,2.647c11.311-6.948,27.072,0.688,25.557,12.382
		l-4.104,31.669l34.736,12.852c12.826,4.746,12.826,20.017,0,24.763l-34.736,12.852l4.104,31.669
		c1.515,11.694-14.246,19.33-25.557,12.382L183.318,122.4l-30.632,18.817c-11.311,6.948-27.072-0.688-25.557-12.382l4.104-31.669
		L96.496,84.314c-12.826-4.746-12.826-20.017,0-24.763l34.736-12.852l-4.104-31.669C125.613,3.336,141.374-4.3,152.685,2.648
		L183.318,21.464z"/>
	<path id="XMLID_937_" style="fill:#FF5959;" d="M342.176,207.778c0,87.735-71.123,158.858-158.858,158.858
		S24.46,295.513,24.46,207.778S95.583,78.292,183.318,78.292S342.176,120.043,342.176,207.778z"/>
</g>
<g>
</g>
<g>
</g>
<g>
</g>
<g>
</g>
<g>
</g>
<g>
</g>
<g>
</g>
<g>
</g>
<g>
</g>
<g>
</g>
<g>
</g>
<g>
</g>
<g>
</g>
<g>
</g>
<g>
</g>
</svg>
